<svg width="68" height="74" viewBox="0 0 68 74" xmlns="http://www.w3.org/2000/svg"><title>btn_egc_microphone_off</title><g fill-rule="nonzero" fill="none"><path fill="#D8D8D8" d="M26 56v13.51L34 74l8-4.49V56.006L34 60.5 26 56"/><path fill="#999" d="M50 14.048v-4.71L34 0 18 9.338v4.66l8 4.64v4.614l-8-4.642v4.668l8 4.64v4.69l-8-4.64v4.688l8 4.64v4.642l-8-4.64.117 9.406L34 56l16-9.365v-9.338l-8 4.682v-4.683l8-4.64v-4.69l-8 4.642v-4.69l8-4.642V18.61l-8 4.642V18.69l8-4.642"/><path fill="#F00" opacity=".7" d="M62.225 4l5.657 5.657L5.657 71.882 0 66.225"/></g></svg>